<svg width="25" height="25" fill="none" xmlns="http://www.w3.org/2000/svg"><path d="M5.82 8.043H.8a.403.403 0 00-.403.403v16.123c0 .223.18.403.404.403h5.018c.223 0 .404-.18.404-.403V8.446a.403.403 0 00-.404-.403zM3.312.027A3.314 3.314 0 000 3.336a3.314 3.314 0 003.312 3.31 3.313 3.313 0 003.309-3.31A3.312 3.312 0 003.31.027zM18.585 7.642c-2.016 0-3.506.867-4.41 1.851V8.446a.403.403 0 00-.403-.403H8.966a.403.403 0 00-.403.403v16.123c0 .223.18.403.403.403h5.008c.222 0 .403-.18.403-.403v-7.977c0-2.688.73-3.735 2.604-3.735 2.04 0 2.203 1.678 2.203 3.873v7.84c0 .222.18.402.403.402h5.01c.223 0 .403-.18.403-.403v-8.844c0-3.997-.762-8.083-6.415-8.083z" fill="#F5F5F5"/></svg>